<?xml version="1.0"?>
<svg xmlns="http://www.w3.org/2000/svg" xmlns:xlink="http://www.w3.org/1999/xlink" xmlns:svgjs="http://svgjs.com/svgjs" version="1.1" width="512" height="512" x="0" y="0" viewBox="0 0 512.007 512.007" style="enable-background:new 0 0 512 512" xml:space="preserve" class=""><g><g xmlns="http://www.w3.org/2000/svg"><path d="m253.006 84.684h104.33c4.143 0 7.5-3.357 7.5-7.5s-3.357-7.5-7.5-7.5h-104.33c-4.143 0-7.5 3.357-7.5 7.5s3.357 7.5 7.5 7.5z" fill="#f66f4d" data-original="#000000" style=""/><path d="m253.006 121.079h104.33c4.143 0 7.5-3.357 7.5-7.5s-3.357-7.5-7.5-7.5h-104.33c-4.143 0-7.5 3.357-7.5 7.5s3.357 7.5 7.5 7.5z" fill="#f66f4d" data-original="#000000" style=""/><path d="m253.006 157.473h104.33c4.143 0 7.5-3.357 7.5-7.5s-3.357-7.5-7.5-7.5h-104.33c-4.143 0-7.5 3.357-7.5 7.5s3.357 7.5 7.5 7.5z" fill="#f66f4d" data-original="#000000" style=""/><path d="m145.506 222.762c0 4.143 3.357 7.5 7.5 7.5h94.33c4.143 0 7.5-3.357 7.5-7.5s-3.357-7.5-7.5-7.5h-94.33c-4.143 0-7.5 3.358-7.5 7.5z" fill="#f66f4d" data-original="#000000" style=""/><path d="m153.006 251.657c-4.143 0-7.5 3.357-7.5 7.5s3.357 7.5 7.5 7.5h174.33c4.143 0 7.5-3.357 7.5-7.5s-3.357-7.5-7.5-7.5z" fill="#f66f4d" data-original="#000000" style=""/><path d="m153.006 412.236h204.33c4.143 0 7.5-3.357 7.5-7.5s-3.357-7.5-7.5-7.5h-204.33c-4.143 0-7.5 3.357-7.5 7.5s3.357 7.5 7.5 7.5z" fill="#f66f4d" data-original="#000000" style=""/><path d="m153.006 448.631h204.33c4.143 0 7.5-3.357 7.5-7.5s-3.357-7.5-7.5-7.5h-204.33c-4.143 0-7.5 3.357-7.5 7.5s3.357 7.5 7.5 7.5z" fill="#f66f4d" data-original="#000000" style=""/><path d="m495.312 79.035c-15.945-9.18-36.283-3.704-45.462 12.245l-8.132 14.127-23.229 40.355v-91.944c0-29.459-23.966-53.425-53.425-53.425h-311.638c-29.459 0-53.426 23.966-53.426 53.425v25.384c0 4.143 3.357 7.5 7.5 7.5s7.5-3.357 7.5-7.5v-25.384c0-21.188 17.237-38.425 38.426-38.425 21.188 0 38.425 17.237 38.425 38.425v93.265h-69.466c-4.072 0-7.385-3.312-7.385-7.385v-29.895c0-4.143-3.357-7.5-7.5-7.5s-7.5 3.357-7.5 7.5v29.895c0 12.343 10.042 22.385 22.385 22.385h69.466v334.967c0 8.03 6.533 14.563 14.563 14.563h76.689c4.143 0 7.5-3.357 7.5-7.5s-3.357-7.5-7.5-7.5h-76.253v-442.795c0-15.075-6.286-28.702-16.363-38.425h274.578c21.188 0 38.425 17.237 38.425 38.425v118.003l-66.903 116.23h-183.581c-4.143 0-7.5 3.357-7.5 7.5s3.357 7.5 7.5 7.5h174.947l-12.315 21.395h-162.632c-4.143 0-7.5 3.357-7.5 7.5s3.357 7.5 7.5 7.5h156.1l-.637 21.396h-155.463c-4.143 0-7.5 3.357-7.5 7.5s3.357 7.5 7.5 7.5h155.019c-.14 5.948 2.965 11.478 8.126 14.449 5.188 2.985 11.571 2.881 16.66-.281l32.516-20.204c.001 0 .001-.001.002-.002 1.019-.635 1.942-1.589 2.54-2.627l35.621-61.884v191.322h-190.4c-4.143 0-7.5 3.357-7.5 7.5s3.357 7.5 7.5 7.5h190.837c8.03 0 14.563-6.533 14.563-14.563v-216.506c0-.39-.039-.771-.096-1.145l45.7-79.394c2.066-3.59.831-8.175-2.759-10.241-3.589-2.066-8.175-.832-10.241 2.759l-92.483 160.67c-12.092-6.96-19.885-11.446-31.707-18.252l124.074-215.553c2.302 1.325-9.531-5.486 31.707 18.252l-16.632 28.894c-2.066 3.59-.831 8.175 2.759 10.241 3.589 2.065 8.175.832 10.241-2.759l20.373-35.394 8.132-14.128c9.177-15.944 3.704-36.281-12.246-45.461zm-32.461 19.727c5.044-8.763 16.215-11.771 24.978-6.728h.001c8.76 5.043 11.773 16.216 6.729 24.979l-4.391 7.627-31.707-18.251zm-137.955 278.507c-.154.095-.625.387-1.262.021-.638-.366-.621-.92-.615-1.102l.766-25.733 22.979 13.227z" fill="#f66f4d" data-original="#000000" style=""/><path d="m183.48 59.983c-4.975-4.973-13.069-4.975-18.05 0l-25.074 25.074c-3.738 3.739-4.781 9.486-2.596 14.301l25.073 55.23c2.096 4.619 6.549 7.488 11.62 7.489h.002c5.071 0 9.524-2.869 11.621-7.487l25.072-55.229c2.188-4.815 1.146-10.562-2.595-14.304zm-9.024 83.919-22.396-49.334 22.396-22.396 22.396 22.396z" fill="#f66f4d" data-original="#000000" style=""/></g></g></svg>
