<?xml version="1.0" encoding="utf-8"?>
<!-- Generator: Adobe Illustrator 21.0.1, SVG Export Plug-In . SVG Version: 6.00 Build 0)  -->
<svg version="1.1" xmlns="http://www.w3.org/2000/svg" xmlns:xlink="http://www.w3.org/1999/xlink" x="0px" y="0px"
	 viewBox="0 0 300 300" style="enable-background:new 0 0 300 300;" xml:space="preserve">
<style type="text/css">
	.st0{fill:#96C944;}
	.st1{fill:#252525;}
</style>
<g id="Слой_7">
	<g>
		<path class="st0" d="M157.8,277c-19.6,0-37.6-3.2-53.9-9.5c-16.4-6.3-30.6-15.3-42.8-26.9c-12.2-11.6-21.6-25.3-28.3-41
			c-6.7-15.8-10-33-10-51.6s3.3-35.8,10-51.6c6.7-15.8,16.2-29.4,28.5-41c12.3-11.6,26.7-20.5,43.2-26.9c16.5-6.3,34.5-9.5,54.1-9.5
			c21.3,0,40.4,3.5,57.5,10.4c17.1,6.9,30.4,16,42.1,29.4l-28.3,29.7c-9.8-9.8-20.4-17-31.7-21.7c-11.3-4.7-23.8-7-37.4-7
			c-13.1,0-25.3,2.1-36.6,6.4c-11.2,4.3-20.9,10.4-29,18.3c-8.1,7.9-14.4,17.2-18.8,28c-4.4,10.8-6.6,22.6-6.6,35.5
			c0,12.7,2.2,24.4,6.6,35.1c4.4,10.8,10.7,20.1,18.8,28.1c8.1,8,17.7,14.2,28.7,18.5c11,4.3,23.2,6.4,36.6,6.4
			c12.4,0,24.4-2,36-5.9c11.6-3.9,22.6-10.6,33.1-19.9L258,243c-13.1,10.5-30.5,20.6-47.8,25.9C192.9,274.3,175.4,277,157.8,277z
			 M69.3,243.2l-1-185.3l189.9,1V243L69.3,243.2z"/>
	</g>
</g>
<g id="Слой_8">
	<g>
		<path d="M146.3,187.7v-21.1h0.7v21.1H146.3z M147.8,187.7v-21.1h0.7v21.1H147.8z M149.2,187.7v-21.1h0.7v21.1H149.2z M152.1,187.7
			v-21.1h2.2v21.1H152.1z M155,187.7v-21.1h2.2v21.1H155z"/>
		<path d="M157.9,187.7v-21.1h2.2v21.1H157.9z M160.7,187.7v-21.1h0.7v21.1H160.7z M162.2,187.7v-21.1h0.7v21.1H162.2z M165.1,187.7
			v-21.1h0.7v21.1H165.1z M166.5,187.7v-21.1h2.2v21.1H166.5z"/>
		<path d="M169.4,187.7v-21.1h2.2v21.1H169.4z M172.3,187.7v-21.1h0.7v21.1H172.3z M173.7,187.7v-21.1h0.7v21.1H173.7z M175.1,187.7
			v-21.1h2.2v21.1H175.1z M179.5,187.7v-21.1h0.7v21.1H179.5z"/>
		<path d="M180.9,187.7v-21.1h2.2v21.1H180.9z M183.8,187.7v-21.1h0.7v21.1H183.8z M185.2,187.7v-21.1h0.7v21.1H185.2z M186.7,187.7
			v-21.1h2.2v21.1H186.7z M191,187.7v-21.1h0.7v21.1H191z"/>
		<path d="M192.4,187.7v-21.1h2.2v21.1H192.4z M196.7,187.7v-21.1h0.7v21.1H196.7z M198.2,187.7v-21.1h2.2v21.1H198.2z M201.1,187.7
			v-21.1h0.7v21.1H201.1z M202.5,187.7v-21.1h0.7v21.1H202.5z"/>
	</g>
</g>
<g id="Слой_1">
	<g>
		<path class="st1" d="M156.4,262c-17.2,0-33-2.8-47.3-8.3c-14.4-5.6-26.9-13.4-37.6-23.6c-10.7-10.2-19-22.2-24.8-36
			c-5.9-13.8-8.8-28.9-8.8-45.3c0-16.4,2.9-31.5,8.8-45.3c5.9-13.8,14.2-25.8,25-36c10.8-10.2,23.4-18,37.9-23.6
			c14.5-5.6,30.3-8.3,47.5-8.3c18.7,0,35.5,3,50.5,9.1c15,6.1,27.6,15,37.9,26.7l-25.8,25.2c-8.6-8.6-17.9-14.9-27.8-19
			c-10-4.1-20.9-6.1-32.9-6.1c-11.5,0-22.2,1.9-32.1,5.7c-9.9,3.8-18.4,9.1-25.5,16c-7.1,6.9-12.6,15.1-16.5,24.5
			c-3.9,9.4-5.8,19.8-5.8,31.1c0,11.1,1.9,21.4,5.8,30.8c3.9,9.4,9.4,17.7,16.5,24.7c7.1,7,15.5,12.4,25.2,16.2
			c9.6,3.8,20.3,5.7,32.1,5.7c10.9,0,21.4-1.7,31.6-5.2c10.2-3.5,19.9-9.3,29.1-17.5l23.3,30.5c-11.5,9.2-24.9,16.2-40.1,20.9
			C187.2,259.6,171.9,262,156.4,262z M203.9,228.7v-62.4h38.7V234L203.9,228.7z"/>
	</g>
</g>
<g id="Слой_4">
	<g>
		<path class="st0" d="M149.3,93.1c4.3,4.2,6.8,9.9,7.1,15.9c0.4-0.1,0.8-0.1,1.1,0c0.4-6,2.9-11.6,7.1-15.9L149.3,93.1z
			 M137.2,93.1L105,93.2c-8.7,0-16.3,5.7-18.7,14h-5.8c-1.4,0-2.5,1.1-2.5,2.5s1.1,2.5,2.5,2.5H85c-1,6-0.8,12.1,0.6,18
			c2.5,11.5,9.9,17.8,21.9,18.8c18.3,2.1,39.9-14,43.1-31.5c1.5-7.1,0.8-14.8-4.1-20C144.3,94.7,140.9,93.1,137.2,93.1L137.2,93.1z
			 M97.2,108l3.7-3.7c1-1,2.6-0.9,3.6,0.1c1,1,1,2.6,0,3.5l-3.7,3.7c-1,1-2.6,0.9-3.6-0.1C96.3,110.6,96.3,109,97.2,108z M112.9,110
			l-9.8,9.8c-1,1-2.6,0.9-3.6-0.1c-1-1-1-2.6,0-3.5l9.8-9.8c1-1,2.6-0.9,3.6,0.1C113.8,107.5,113.8,109,112.9,110z M233.5,107.2
			h-5.8c-2.5-8.6-10.6-14.5-19.5-14.1l-30.9-0.1c-5.3,0-10,3.1-12.2,7.9c-2.5,5-3.2,10.7-1.8,16.2c3.7,17.6,22.6,32.1,40.5,32.1
			c1.6,0,3.1-0.1,4.7-0.3c4.5-0.5,8.8-2.3,12.4-5.1c3.3-2.8,5.7-6.5,6.8-10.7c2-6.7,2.4-13.9,1.3-20.8h4.5c1.4,0,2.5-1.1,2.5-2.5
			S234.9,107.2,233.5,107.2z"/>
	</g>
</g>
<g id="Слой_6">
	<g>
		<path class="st1" d="M150.3,95c4.1,4.1,6.6,9.5,6.8,15.3c0.4-0.1,0.7-0.1,1.1,0c0.4-5.8,2.8-11.2,6.9-15.3L150.3,95z M138.6,95
			l-31.1,0.1c-8.4,0-15.7,5.5-18.1,13.5h-5.6c-1.4,0-2.5,1.1-2.5,2.5c0,1.4,1.1,2.5,2.5,2.5h4.3c-1,5.8-0.8,11.7,0.6,17.4
			c2.4,11.1,9.5,17.2,21.1,18.1c17.7,2.1,38.5-13.5,41.7-30.4c1.5-6.8,0.8-14.3-3.9-19.3C145.5,96.6,142.1,95,138.6,95L138.6,95z
			 M100,109.4l3.6-3.6c1-0.9,2.5-0.9,3.5,0.1c0.9,1,0.9,2.5,0,3.4l-3.6,3.6c-1,0.9-2.5,0.9-3.5-0.1C99.1,111.9,99.1,110.4,100,109.4
			z M115.1,111.4l-9.4,9.4c-1,0.9-2.5,0.9-3.5-0.1c-0.9-1-0.9-2.5,0-3.4l9.4-9.4c1-0.9,2.5-0.9,3.5,0.1
			C116,108.9,116,110.4,115.1,111.4z M231.5,108.6H226c-2.4-8.3-10.2-14-18.9-13.6l-29.8,0c-5.1,0-9.7,3-11.8,7.6
			c-2.5,4.8-3.1,10.4-1.7,15.6c3.5,17,21.8,31,39.1,31c1.5,0,3-0.1,4.5-0.3c4.4-0.5,8.5-2.2,12-4.9c3.2-2.7,5.5-6.3,6.6-10.4
			c1.9-6.5,2.4-13.4,1.2-20.1h4.4c1.4,0,2.5-1.1,2.5-2.5S232.9,108.6,231.5,108.6z"/>
	</g>
</g>
</svg>
