<?xml version="1.0"?>
<svg xmlns="http://www.w3.org/2000/svg" xmlns:xlink="http://www.w3.org/1999/xlink" xmlns:svgjs="http://svgjs.com/svgjs" version="1.1" width="512" height="512" x="0" y="0" viewBox="0 0 512 512" style="enable-background:new 0 0 512 512" xml:space="preserve" class=""><g><g xmlns="http://www.w3.org/2000/svg"><g><path d="m226.811 77.729h8c4.142 0 7.5-3.358 7.5-7.5s-3.358-7.5-7.5-7.5h-8c-4.142 0-7.5 3.358-7.5 7.5s3.358 7.5 7.5 7.5z" fill="#f66f4d" data-original="#000000" style="" class=""/><path d="m193.811 77.729h8c4.142 0 7.5-3.358 7.5-7.5s-3.358-7.5-7.5-7.5h-8c-4.142 0-7.5 3.358-7.5 7.5s3.358 7.5 7.5 7.5z" fill="#f66f4d" data-original="#000000" style="" class=""/><path d="m160.811 77.729h8c4.142 0 7.5-3.358 7.5-7.5s-3.358-7.5-7.5-7.5h-8c-4.142 0-7.5 3.358-7.5 7.5s3.358 7.5 7.5 7.5z" fill="#f66f4d" data-original="#000000" style="" class=""/><path d="m358.811 77.729h8c1.911 0 3.65-.721 4.974-1.897 2.867 36.113 33.149 64.627 69.986 64.627 38.725 0 70.229-31.505 70.229-70.229 0-11.825-3.004-23.527-8.688-33.843-1.999-3.627-6.56-4.948-10.188-2.95-3.628 1.999-4.948 6.56-2.95 10.188 4.466 8.104 6.826 17.304 6.826 26.604 0 30.454-24.775 55.229-55.229 55.229s-55.229-24.776-55.229-55.229 24.774-55.229 55.229-55.229c9.3 0 18.5 2.36 26.604 6.826 3.628 1.999 8.189.679 10.188-2.95 1.998-3.628.678-8.189-2.95-10.188-10.315-5.684-22.018-8.688-33.842-8.688-36.837 0-67.119 28.514-69.986 64.627-1.324-1.177-3.063-1.897-4.974-1.897h-8c-4.143 0-7.5 3.358-7.5 7.5s3.357 7.499 7.5 7.499z" fill="#f66f4d" data-original="#000000" style="" class=""/><path d="m259.811 77.729h8c4.143 0 7.5-3.358 7.5-7.5s-3.357-7.5-7.5-7.5h-8c-4.142 0-7.5 3.358-7.5 7.5s3.357 7.5 7.5 7.5z" fill="#f66f4d" data-original="#000000" style="" class=""/><path d="m325.811 77.729h8c4.143 0 7.5-3.358 7.5-7.5s-3.357-7.5-7.5-7.5h-8c-4.143 0-7.5 3.358-7.5 7.5s3.357 7.5 7.5 7.5z" fill="#f66f4d" data-original="#000000" style="" class=""/><path d="m292.811 77.729h8c4.143 0 7.5-3.358 7.5-7.5s-3.357-7.5-7.5-7.5h-8c-4.143 0-7.5 3.358-7.5 7.5s3.357 7.5 7.5 7.5z" fill="#f66f4d" data-original="#000000" style="" class=""/><path d="m449.271 279.959c0-4.142-3.357-7.5-7.5-7.5s-7.5 3.358-7.5 7.5v8c0 4.142 3.357 7.5 7.5 7.5s7.5-3.358 7.5-7.5z" fill="#f66f4d" data-original="#000000" style="" class=""/><path d="m441.771 338.459c-4.143 0-7.5 3.358-7.5 7.5v8c0 4.142 3.357 7.5 7.5 7.5s7.5-3.358 7.5-7.5v-8c0-4.142-3.358-7.5-7.5-7.5z" fill="#f66f4d" data-original="#000000" style="" class=""/><path d="m449.271 312.959c0-4.142-3.357-7.5-7.5-7.5s-7.5 3.358-7.5 7.5v8c0 4.142 3.357 7.5 7.5 7.5s7.5-3.358 7.5-7.5z" fill="#f66f4d" data-original="#000000" style="" class=""/><path d="m449.271 246.959c0-4.142-3.357-7.5-7.5-7.5s-7.5 3.358-7.5 7.5v8c0 4.142 3.357 7.5 7.5 7.5s7.5-3.358 7.5-7.5z" fill="#f66f4d" data-original="#000000" style="" class=""/><path d="m449.271 213.959c0-4.142-3.357-7.5-7.5-7.5s-7.5 3.358-7.5 7.5v8c0 4.142 3.357 7.5 7.5 7.5s7.5-3.358 7.5-7.5z" fill="#f66f4d" data-original="#000000" style="" class=""/><path d="m449.271 147.959c0-4.142-3.357-7.5-7.5-7.5s-7.5 3.358-7.5 7.5v8c0 4.142 3.357 7.5 7.5 7.5s7.5-3.358 7.5-7.5z" fill="#f66f4d" data-original="#000000" style="" class=""/><path d="m449.271 180.959c0-4.142-3.357-7.5-7.5-7.5s-7.5 3.358-7.5 7.5v8c0 4.142 3.357 7.5 7.5 7.5s7.5-3.358 7.5-7.5z" fill="#f66f4d" data-original="#000000" style="" class=""/><path d="m202.398 434.271h-8c-4.142 0-7.5 3.358-7.5 7.5s3.358 7.5 7.5 7.5h8c4.142 0 7.5-3.358 7.5-7.5s-3.357-7.5-7.5-7.5z" fill="#f66f4d" data-original="#000000" style="" class=""/><path d="m140.163 435.291c-.797-8.772-3.22-17.209-7.238-25.158-1.869-3.696-6.382-5.179-10.077-3.31-3.697 1.869-5.178 6.381-3.31 10.077 3.929 7.771 5.921 16.138 5.921 24.87 0 30.454-24.776 55.229-55.229 55.229s-55.23-24.775-55.23-55.228 24.776-55.229 55.229-55.229c9.974 0 19.754 2.694 28.281 7.79 3.557 2.125 8.161.965 10.286-2.59 2.125-3.556.965-8.161-2.59-10.286-8.702-5.201-18.426-8.43-28.477-9.508v-35.085l59.472-28.191c2.619-1.241 4.288-3.88 4.288-6.777s-1.669-5.536-4.288-6.777l-59.472-28.19v-5.33c0-4.142-3.358-7.5-7.5-7.5s-7.5 3.358-7.5 7.5v110.35c-35.21 3.754-62.729 33.632-62.729 69.823 0 38.724 31.505 70.229 70.229 70.229 36.536 0 66.631-28.048 69.918-63.741 2.24-1.297 3.751-3.714 3.751-6.489 0-2.768-1.503-5.179-3.735-6.479zm-23.684-133.397-38.75 18.368v-36.736z" fill="#f66f4d" data-original="#000000" style="" class=""/><path d="m235.398 434.271h-8c-4.142 0-7.5 3.358-7.5 7.5s3.358 7.5 7.5 7.5h8c4.142 0 7.5-3.358 7.5-7.5s-3.357-7.5-7.5-7.5z" fill="#f66f4d" data-original="#000000" style="" class=""/><path d="m169.398 434.271h-8c-4.142 0-7.5 3.358-7.5 7.5s3.358 7.5 7.5 7.5h8c4.142 0 7.5-3.358 7.5-7.5s-3.357-7.5-7.5-7.5z" fill="#f66f4d" data-original="#000000" style="" class=""/><path d="m334.398 434.271h-8c-4.143 0-7.5 3.358-7.5 7.5s3.357 7.5 7.5 7.5h8c4.143 0 7.5-3.358 7.5-7.5s-3.357-7.5-7.5-7.5z" fill="#f66f4d" data-original="#000000" style="" class=""/><path d="m301.398 434.271h-8c-4.143 0-7.5 3.358-7.5 7.5s3.357 7.5 7.5 7.5h8c4.143 0 7.5-3.358 7.5-7.5s-3.357-7.5-7.5-7.5z" fill="#f66f4d" data-original="#000000" style="" class=""/><path d="m268.398 434.271h-8c-4.142 0-7.5 3.358-7.5 7.5s3.358 7.5 7.5 7.5h8c4.143 0 7.5-3.358 7.5-7.5s-3.357-7.5-7.5-7.5z" fill="#f66f4d" data-original="#000000" style="" class=""/><path d="m420.03 89.21c-2.055 2.178-2.617 5.368-1.432 8.117s3.893 4.529 6.887 4.529h32.57c4.143 0 7.5-3.358 7.5-7.5s-3.357-7.5-7.5-7.5h-15.185l15.05-15.953c3.368-3.569 5.223-8.238 5.223-13.145 0-10.563-8.593-19.155-19.155-19.155h-14.885c-4.143 0-7.5 3.358-7.5 7.5s3.357 7.5 7.5 7.5h14.885c2.291 0 4.155 1.864 4.155 4.155 0 1.064-.402 2.077-1.133 2.852z" fill="#f66f4d" data-original="#000000" style="" class=""/><path d="m70.229 140.459c36.672 0 66.85-28.258 69.949-64.14 1.894-1.361 3.133-3.578 3.133-6.089s-1.238-4.728-3.133-6.089c-3.098-35.883-33.277-64.141-69.949-64.141-38.724 0-70.229 31.505-70.229 70.229s31.505 70.23 70.229 70.23zm0-125.459c30.454 0 55.229 24.776 55.229 55.229s-24.776 55.229-55.229 55.229-55.229-24.775-55.229-55.229 24.776-55.229 55.229-55.229z" fill="#f66f4d" data-original="#000000" style="" class=""/><path d="m59.373 53.603h6.976v40.753c0 4.142 3.358 7.5 7.5 7.5s7.5-3.358 7.5-7.5v-48.253c0-4.142-3.358-7.5-7.5-7.5h-14.476c-4.142 0-7.5 3.358-7.5 7.5s3.357 7.5 7.5 7.5z" fill="#f66f4d" data-original="#000000" style="" class=""/><path d="m443.027 371.573c-.409-.069-.827-.113-1.256-.113s-.847.044-1.256.113c-36.114.639-65.651 28.66-68.695 64.148-1.24-.908-2.765-1.451-4.42-1.451h-8c-4.143 0-7.5 3.358-7.5 7.5s3.357 7.5 7.5 7.5h8c1.655 0 3.18-.543 4.42-1.451 3.08 35.901 33.267 64.18 69.952 64.18 38.723.001 70.228-31.504 70.228-70.228 0-38.304-30.828-69.523-68.973-70.198zm-1.256 125.427c-30.454 0-55.229-24.776-55.229-55.229s24.775-55.229 55.229-55.229 55.229 24.775 55.229 55.229-24.775 55.229-55.229 55.229z" fill="#f66f4d" data-original="#000000" style="" class=""/><path d="m444.786 410.144h-18.095c-4.143 0-7.5 3.358-7.5 7.5s3.357 7.5 7.5 7.5h18.095c2.517 0 4.563 2.047 4.563 4.563s-2.047 4.563-4.563 4.563h-8.444c-4.143 0-7.5 3.358-7.5 7.5s3.357 7.5 7.5 7.5h8.444c2.517 0 4.563 2.047 4.563 4.563s-2.047 4.563-4.563 4.563h-18.095c-4.143 0-7.5 3.358-7.5 7.5s3.357 7.5 7.5 7.5h18.095c10.787 0 19.563-8.776 19.563-19.563 0-4.552-1.576-8.736-4.194-12.063 2.617-3.328 4.194-7.511 4.194-12.063.001-10.787-8.776-19.563-19.563-19.563z" fill="#f66f4d" data-original="#000000" style="" class=""/><path d="m70.229 407.451c-18.924 0-34.32 15.396-34.32 34.32s15.396 34.32 34.32 34.32 34.32-15.396 34.32-34.32-15.396-34.32-34.32-34.32zm0 53.639c-10.653 0-19.32-8.667-19.32-19.32s8.667-19.32 19.32-19.32 19.32 8.667 19.32 19.32-8.667 19.32-19.32 19.32z" fill="#f66f4d" data-original="#000000" style="" class=""/><path d="m357.327 370.954v-86.954c0-4.142-3.357-7.5-7.5-7.5s-7.5 3.358-7.5 7.5v82.454h-172.654v-220.908h172.654v103.454c0 4.142 3.357 7.5 7.5 7.5s7.5-3.358 7.5-7.5v-107.954c0-5.79-4.71-10.5-10.5-10.5h-181.654c-5.79 0-10.5 4.71-10.5 10.5v229.908c0 5.79 4.71 10.5 10.5 10.5h181.654c5.79 0 10.5-4.71 10.5-10.5z" fill="#f66f4d" data-original="#000000" style="" class=""/><path d="m288.833 180.405c4.143 0 7.5-3.358 7.5-7.5s-3.357-7.5-7.5-7.5h-65.666c-4.142 0-7.5 3.358-7.5 7.5s3.358 7.5 7.5 7.5z" fill="#f66f4d" data-original="#000000" style="" class=""/><path d="m309.408 197.021h-24.408c-4.143 0-7.5 3.358-7.5 7.5s3.357 7.5 7.5 7.5h24.408c4.143 0 7.5-3.358 7.5-7.5s-3.357-7.5-7.5-7.5z" fill="#f66f4d" data-original="#000000" style="" class=""/><path d="m195.092 204.521c0 4.142 3.358 7.5 7.5 7.5h59.408c4.143 0 7.5-3.358 7.5-7.5s-3.357-7.5-7.5-7.5h-59.408c-4.142 0-7.5 3.358-7.5 7.5z" fill="#f66f4d" data-original="#000000" style="" class=""/><path d="m309.408 223.339h-106.816c-4.142 0-7.5 3.358-7.5 7.5s3.358 7.5 7.5 7.5h106.816c4.143 0 7.5-3.358 7.5-7.5s-3.357-7.5-7.5-7.5z" fill="#f66f4d" data-original="#000000" style="" class=""/><path d="m309.408 249.657h-43.408c-4.143 0-7.5 3.358-7.5 7.5s3.357 7.5 7.5 7.5h43.408c4.143 0 7.5-3.358 7.5-7.5s-3.357-7.5-7.5-7.5z" fill="#f66f4d" data-original="#000000" style="" class=""/><path d="m202.592 264.657h41.408c4.142 0 7.5-3.358 7.5-7.5s-3.358-7.5-7.5-7.5h-41.408c-4.142 0-7.5 3.358-7.5 7.5s3.358 7.5 7.5 7.5z" fill="#f66f4d" data-original="#000000" style="" class=""/><path d="m309.408 275.975h-106.816c-4.142 0-7.5 3.358-7.5 7.5s3.358 7.5 7.5 7.5h106.816c4.143 0 7.5-3.358 7.5-7.5s-3.357-7.5-7.5-7.5z" fill="#f66f4d" data-original="#000000" style="" class=""/><path d="m309.408 302.292h-35.408c-4.143 0-7.5 3.358-7.5 7.5s3.357 7.5 7.5 7.5h35.408c4.143 0 7.5-3.358 7.5-7.5s-3.357-7.5-7.5-7.5z" fill="#f66f4d" data-original="#000000" style="" class=""/><path d="m202.592 317.292h50.408c4.143 0 7.5-3.358 7.5-7.5s-3.357-7.5-7.5-7.5h-50.408c-4.142 0-7.5 3.358-7.5 7.5s3.358 7.5 7.5 7.5z" fill="#f66f4d" data-original="#000000" style="" class=""/><path d="m202.592 343.61h106.816c4.143 0 7.5-3.358 7.5-7.5s-3.357-7.5-7.5-7.5h-106.816c-4.142 0-7.5 3.358-7.5 7.5s3.358 7.5 7.5 7.5z" fill="#f66f4d" data-original="#000000" style="" class=""/></g></g></g></svg>
