<?xml version="1.0"?>
<svg xmlns="http://www.w3.org/2000/svg" xmlns:xlink="http://www.w3.org/1999/xlink" xmlns:svgjs="http://svgjs.com/svgjs" version="1.1" width="512" height="512" x="0" y="0" viewBox="0 0 511.97 511.97" style="enable-background:new 0 0 512 512" xml:space="preserve" class=""><g>
<g xmlns="http://www.w3.org/2000/svg">
	<g>
		<path d="M356.223,16h-0.078c-2.211,0-3.961,1.789-3.961,4s1.828,4,4.039,4s4-1.789,4-4S358.434,16,356.223,16z" fill="#ffffff" data-original="#000000" style=""/>
	</g>
</g>
<g xmlns="http://www.w3.org/2000/svg">
	<g>
		<path d="M340.224,16h-0.078c-2.211,0-3.961,1.789-3.961,4s1.828,4,4.039,4c2.21,0,3.999-1.789,3.999-4S342.434,16,340.224,16z" fill="#ffffff" data-original="#000000" style=""/>
	</g>
</g>
<g xmlns="http://www.w3.org/2000/svg">
	<g>
		<path d="M324.225,16h-0.078c-2.211,0-3.961,1.789-3.961,4s1.828,4,4.039,4s4-1.789,4-4S326.436,16,324.225,16z" fill="#ffffff" data-original="#000000" style=""/>
	</g>
</g>
<g xmlns="http://www.w3.org/2000/svg">
	<g>
		<path d="M188.232,16h-0.078c-2.21,0-3.96,1.789-3.96,4s1.832,4,4.039,4c2.211,0,4-1.789,3.999-4    C192.232,17.789,190.443,16,188.232,16z" fill="#ffffff" data-original="#000000" style=""/>
	</g>
</g>
<g xmlns="http://www.w3.org/2000/svg">
	<g>
		<path d="M172.233,16h-0.078c-2.21,0-3.96,1.789-3.96,4s1.832,4,4.039,4c2.211,0,4-1.789,3.999-4    C176.233,17.789,174.444,16,172.233,16z" fill="#ffffff" data-original="#000000" style=""/>
	</g>
</g>
<g xmlns="http://www.w3.org/2000/svg">
	<g>
		<path d="M156.234,16h-0.078c-2.21,0-3.96,1.789-3.96,4s1.832,4,4.039,4c2.211,0,4-1.789,3.999-4    C160.234,17.789,158.445,16,156.234,16z" fill="#ffffff" data-original="#000000" style=""/>
	</g>
</g>
<g xmlns="http://www.w3.org/2000/svg">
	<g>
		<path d="M147.998,0.001c-11.027,0-19.999,8.968-19.999,19.999c0,2.211,1.789,4,4,4c2.21,0,3.999-1.789,3.999-3.999    c0-6.618,5.383-12,12-12c2.211,0,4-1.79,4-4C151.998,1.79,150.208,0.001,147.998,0.001z" fill="#ffffff" data-original="#000000" style=""/>
	</g>
</g>
<g xmlns="http://www.w3.org/2000/svg">
	<g>
		<path d="M147.991,487.972c-6.618,0-12-5.383-12-12c0-2.211-1.79-4-4-4c-2.211,0-4,1.789-4,4c0,11.031,8.972,19.999,19.999,19.999    c2.21,0,3.999-1.789,4.001-4C151.991,489.761,150.201,487.972,147.991,487.972z" fill="#ffffff" data-original="#000000" style=""/>
	</g>
</g>
<g xmlns="http://www.w3.org/2000/svg">
	<g>
		<path d="M131.999,16.001c-2.211,0-4,1.789-4,4v455.971c0,2.211,1.789,4,4,4c2.21,0,3.999-1.789,4-3.999V20.001    C135.999,17.79,134.209,16.001,131.999,16.001z" fill="#ffffff" data-original="#000000" style=""/>
	</g>
</g>
<g xmlns="http://www.w3.org/2000/svg">
	<g>
		<path d="M379.979,471.972c-2.203,0-4,1.789-4,4c0,6.617-5.374,12-11.999,12c-2.202,0-3.999,1.789-3.999,3.999    c0,2.211,1.797,4,3.999,4c11.03,0,19.999-8.967,19.999-19.999C383.979,473.761,382.198,471.972,379.979,471.972z" fill="#ffffff" data-original="#000000" style=""/>
	</g>
</g>
<g xmlns="http://www.w3.org/2000/svg">
	<g>
		<path d="M363.98,0c-2.202,0-3.999,1.789-3.999,4s1.797,4,3.999,4c6.625,0,11.999,5.383,11.999,12c0,2.211,1.797,4,4,4    c2.219,0,4-1.789,4-4.001C383.979,8.968,375.01,0,363.98,0z" fill="#ffffff" data-original="#000000" style=""/>
	</g>
</g>
<g xmlns="http://www.w3.org/2000/svg">
	<g>
		<path d="M379.979,16.001c-2.203,0-4,1.789-4,4v455.971c0,2.211,1.797,4,4,4c2.219,0,4-1.789,4-3.999V20.001    C383.979,17.79,382.198,16.001,379.979,16.001z" fill="#ffffff" data-original="#000000" style=""/>
	</g>
</g>
<g xmlns="http://www.w3.org/2000/svg">
	<g>
		<path d="M363.98,487.972H147.99c-2.211,0-4,1.789-4,3.999c0,2.211,1.789,4,4,4h215.99c2.219,0,4-1.789,4-4    C367.98,489.761,366.199,487.972,363.98,487.972z" fill="#ffffff" data-original="#000000" style=""/>
	</g>
</g>
<g xmlns="http://www.w3.org/2000/svg">
	<g>
		<path d="M363.98,0.001H147.998c-2.211,0-4,1.789-4,4s1.789,4,4,4H363.98c2.219,0,4-1.789,4-4S366.199,0.001,363.98,0.001z" fill="#ffffff" data-original="#000000" style=""/>
	</g>
</g>
<g xmlns="http://www.w3.org/2000/svg">
	<g>
		<path d="M363.98,471.972H147.998c-2.211,0-4,1.789-4,4s1.789,4,4,4H363.98c2.219,0,4-1.789,4-4S366.199,471.972,363.98,471.972z" fill="#ffffff" data-original="#000000" style=""/>
	</g>
</g>
<g xmlns="http://www.w3.org/2000/svg">
	<g>
		<path d="M363.98,279.984H147.998c-2.211,0-4,1.789-4,4s1.789,4,4,4H363.98c2.219,0,4-1.789,4-4S366.199,279.984,363.98,279.984z" fill="#ffffff" data-original="#000000" style=""/>
	</g>
</g>
<g xmlns="http://www.w3.org/2000/svg">
	<g>
		<path d="M363.98,31.999H147.998c-2.211,0-4,1.789-4,4s1.789,4,4,4H363.98c2.219,0,4-1.789,4-4S366.199,31.999,363.98,31.999z" fill="#ffffff" data-original="#000000" style=""/>
	</g>
</g>
<g xmlns="http://www.w3.org/2000/svg">
	<g>
		<path d="M283.985,16h-55.992c-2.211,0-4,1.789-4,4s1.789,4,4,4h55.992c2.219,0,4-1.789,4-4S286.204,16,283.985,16z" fill="#ffffff" data-original="#000000" style=""/>
	</g>
</g>
<g xmlns="http://www.w3.org/2000/svg">
	<g>
		<path d="M159.997,239.986c-2.211,0-4,1.789-4,4s1.789,4,4,4c31.365,0,52.563,1.844,60.902,4c-8.339,2.156-29.537,4-60.902,4    c-2.211,0-4,1.789-4,4s1.789,4,4,4c71.995,0,71.995-7.805,71.996-12.001C231.993,247.79,231.993,239.986,159.997,239.986z" fill="#ffffff" data-original="#000000" style=""/>
	</g>
</g>
<g xmlns="http://www.w3.org/2000/svg">
	<g>
		<path d="M159.997,239.986h-11.999c-2.211,0-4,1.789-4,4s1.789,4,4,4h11.999c2.211,0,4-1.789,4-4S162.208,239.986,159.997,239.986z    " fill="#ffffff" data-original="#000000" style=""/>
	</g>
</g>
<g xmlns="http://www.w3.org/2000/svg">
	<g>
		<path d="M147.998,239.987c-2.211,0-4,1.789-4,4v15.999c0,2.211,1.789,4,4,4c2.21,0,3.999-1.789,4-4v-15.999    C151.998,241.776,150.208,239.987,147.998,239.987z" fill="#ffffff" data-original="#000000" style=""/>
	</g>
</g>
<g xmlns="http://www.w3.org/2000/svg">
	<g>
		<path d="M159.997,255.986h-11.999c-2.211,0-4,1.789-4,4s1.789,4,4,4h11.999c2.211,0,4-1.789,4-4S162.208,255.986,159.997,255.986z    " fill="#ffffff" data-original="#000000" style=""/>
	</g>
</g>
<g xmlns="http://www.w3.org/2000/svg">
	<g>
		<path d="M159.997,303.983c-2.211,0-4,1.789-4,4c0,2.21,1.789,3.999,4,3.999c31.365,0,52.563,1.844,60.902,4    c-8.339,2.156-29.537,4-60.902,4c-2.211,0-4,1.789-4,4s1.789,4,4,4c71.995,0,71.996-7.805,71.996-12    S231.993,303.983,159.997,303.983z" fill="#ffffff" data-original="#000000" style=""/>
	</g>
</g>
<g xmlns="http://www.w3.org/2000/svg">
	<g>
		<path d="M159.997,303.983h-11.999c-2.211,0-4,1.789-4,4c0,2.21,1.789,3.999,4,3.999h11.999c2.211,0,4-1.789,4-3.999    C163.997,305.772,162.208,303.983,159.997,303.983z" fill="#ffffff" data-original="#000000" style=""/>
	</g>
</g>
<g xmlns="http://www.w3.org/2000/svg">
	<g>
		<path d="M147.998,303.983c-2.211,0-4,1.789-4,4v15.999c0,2.211,1.789,4,4,4c2.21,0,3.999-1.789,4-4v-15.999    C151.998,305.772,150.208,303.983,147.998,303.983z" fill="#ffffff" data-original="#000000" style=""/>
	</g>
</g>
<g xmlns="http://www.w3.org/2000/svg">
	<g>
		<path d="M159.997,319.982h-11.999c-2.211,0-4,1.789-4,4s1.789,4,4,4h11.999c2.211,0,4-1.789,4-4S162.208,319.982,159.997,319.982z    " fill="#ffffff" data-original="#000000" style=""/>
	</g>
</g>
<g xmlns="http://www.w3.org/2000/svg">
	<g>
		<path d="M363.98,55.998c-2.202,0-3.999,1.79-3.999,4v199.988c0,2.211,1.797,4,3.999,4c2.219,0,4-1.789,4-4V59.998    C367.98,57.787,366.199,55.998,363.98,55.998z" fill="#ffffff" data-original="#000000" style=""/>
	</g>
</g>
<g xmlns="http://www.w3.org/2000/svg">
	<g>
		<path d="M363.98,303.983c-2.202,0-3.999,1.789-3.999,4v143.991c0,2.211,1.797,4,3.999,4c2.219,0,4-1.789,4-4V307.983    C367.98,305.772,366.199,303.983,363.98,303.983z" fill="#ffffff" data-original="#000000" style=""/>
	</g>
</g>
<g xmlns="http://www.w3.org/2000/svg">
	<g>
		<path d="M171.997,495.971c-2.211,0-4,1.789-4,4c0,2.202-1.793,3.999-4,3.999c-2.207,0-4-1.797-4-3.999c0-2.211-1.789-4-4-4    s-4,1.789-4,4c0,6.616,5.383,11.999,12,11.999c6.616,0,11.999-5.382,12-11.999C175.997,497.76,174.208,495.971,171.997,495.971z" fill="#ffffff" data-original="#000000" style=""/>
	</g>
</g>
<g xmlns="http://www.w3.org/2000/svg">
	<g>
		<path d="M355.981,495.971c-2.203,0-4,1.789-4,4c0,2.202-1.789,3.999-4,3.999c-2.203,0-4-1.797-4-3.999c0-2.211-1.781-4-3.999-4    c-2.203,0-4,1.789-4,4c0,6.616,5.391,11.999,11.999,11.999c6.625,0,12-5.382,12-11.999    C359.981,497.76,358.2,495.971,355.981,495.971z" fill="#ffffff" data-original="#000000" style=""/>
	</g>
</g>
<g xmlns="http://www.w3.org/2000/svg">
</g>
<g xmlns="http://www.w3.org/2000/svg">
</g>
<g xmlns="http://www.w3.org/2000/svg">
</g>
<g xmlns="http://www.w3.org/2000/svg">
</g>
<g xmlns="http://www.w3.org/2000/svg">
</g>
<g xmlns="http://www.w3.org/2000/svg">
</g>
<g xmlns="http://www.w3.org/2000/svg">
</g>
<g xmlns="http://www.w3.org/2000/svg">
</g>
<g xmlns="http://www.w3.org/2000/svg">
</g>
<g xmlns="http://www.w3.org/2000/svg">
</g>
<g xmlns="http://www.w3.org/2000/svg">
</g>
<g xmlns="http://www.w3.org/2000/svg">
</g>
<g xmlns="http://www.w3.org/2000/svg">
</g>
<g xmlns="http://www.w3.org/2000/svg">
</g>
<g xmlns="http://www.w3.org/2000/svg">
</g>
</g></svg>
