<?xml version="1.0"?>
<svg xmlns="http://www.w3.org/2000/svg" xmlns:xlink="http://www.w3.org/1999/xlink" xmlns:svgjs="http://svgjs.com/svgjs" version="1.1" width="512" height="512" x="0" y="0" viewBox="0 0 512 512" style="enable-background:new 0 0 512 512" xml:space="preserve" class=""><g><g xmlns="http://www.w3.org/2000/svg"><circle cx="112.5" cy="308.833" r="7.5" fill="#45a1c0" data-original="#000000" style="" class=""/><path d="m146.25 292.29c-3.587 2.071-4.816 6.658-2.745 10.245s6.658 4.816 10.245 2.745 4.816-6.658 2.745-10.245-6.658-4.816-10.245-2.745z" fill="#45a1c0" data-original="#000000" style="" class=""/><path d="m71.25 162.386c-3.587 2.071-4.816 6.658-2.745 10.245s6.658 4.816 10.245 2.745 4.816-6.658 2.745-10.245-6.658-4.816-10.245-2.745z" fill="#45a1c0" data-original="#000000" style="" class=""/><path d="m181.202 264.838c-3.587-2.071-8.174-.842-10.245 2.745s-.842 8.174 2.745 10.245 8.174.842 10.245-2.745.842-8.174-2.745-10.245z" fill="#45a1c0" data-original="#000000" style="" class=""/><path d="m51.298 189.838c-3.587-2.071-8.174-.842-10.245 2.745s-.842 8.174 2.745 10.245 8.174.842 10.245-2.745c2.072-3.587.842-8.174-2.745-10.245z" fill="#45a1c0" data-original="#000000" style="" class=""/><circle cx="37.5" cy="233.833" r="7.5" fill="#45a1c0" data-original="#000000" style="" class=""/><path d="m181.202 202.828c3.587-2.071 4.816-6.658 2.745-10.245s-6.658-4.816-10.245-2.745-4.816 6.658-2.745 10.245 6.658 4.817 10.245 2.745z" fill="#45a1c0" data-original="#000000" style="" class=""/><path d="m43.798 264.838c-3.587 2.071-4.816 6.658-2.745 10.245s6.658 4.816 10.245 2.745 4.816-6.658 2.745-10.245-6.658-4.816-10.245-2.745z" fill="#45a1c0" data-original="#000000" style="" class=""/><path d="m146.25 175.377c3.587 2.071 8.174.842 10.245-2.745s.842-8.174-2.745-10.245-8.174-.842-10.245 2.745-.842 8.174 2.745 10.245z" fill="#45a1c0" data-original="#000000" style="" class=""/><path d="m78.75 292.29c-3.587-2.071-8.174-.842-10.245 2.745s-.842 8.174 2.745 10.245 8.174.842 10.245-2.745.842-8.174-2.745-10.245z" fill="#45a1c0" data-original="#000000" style="" class=""/><path d="m504.5 0h-392c-4.143 0-7.5 3.357-7.5 7.5v114.089c-58.549 3.873-105 52.732-105 112.244s46.451 108.371 105 112.244v45.923h-82.5c-4.143 0-7.5 3.357-7.5 7.5 0 28.948 23.552 52.5 52.5 52.5h37.5v52.5c0 4.143 3.357 7.5 7.5 7.5h392c4.143 0 7.5-3.357 7.5-7.5v-497c0-4.143-3.357-7.5-7.5-7.5zm-7.5 60h-45v-45h45zm-60-45v45h-317v-45zm-422 218.833c0-53.762 43.738-97.5 97.5-97.5s97.5 43.738 97.5 97.5-43.738 97.5-97.5 97.5-97.5-43.738-97.5-97.5zm195.5-85.344c4.143 0 7.5-3.357 7.5-7.5v-35.989h53v53h-42.058c-4.143 0-7.5 3.357-7.5 7.5s3.357 7.5 7.5 7.5h42.058v53h-23.5c-4.143 0-7.5 3.357-7.5 7.5s3.357 7.5 7.5 7.5h23.5v53h-41.663c-4.143 0-7.5 3.357-7.5 7.5s3.357 7.5 7.5 7.5h41.663v53h-53v-35.323c0-4.143-3.357-7.5-7.5-7.5s-7.5 3.357-7.5 7.5v35.323h-53v-22.102c43.65-15.478 75-57.176 75-106.065s-31.35-90.587-75-106.065v-22.768h53v35.989c0 4.143 3.357 7.5 7.5 7.5zm128.5-43.489v53h-53v-53zm68 0v53h-53v-53zm-121 257v-53h53v53zm121-68h-53v-53h53zm0-68h-53v-53h53zm-68 0h-53v-53h53zm0 15v53h-53v-53zm15 68h53v53h-53zm-234 37.077c5.099-.337 10.107-1.009 15-2.006v25.429c0 4.143 3.357 7.5 7.5 7.5h272c4.143 0 7.5-3.357 7.5-7.5v-272c0-4.143-3.357-7.5-7.5-7.5h-272c-4.143 0-7.5 3.357-7.5 7.5v26.095c-4.893-.997-9.901-1.669-15-2.006v-46.589h317v324.5c0 20.678-16.822 37.5-37.5 37.5s-37.5-16.822-37.5-37.5c0-4.143-3.357-7.5-7.5-7.5h-234.5zm-89.247 60.923h316.781c1.677 11.673 7.208 22.118 15.259 30h-295.293c-18.109 0-33.262-12.904-36.747-30zm89.247 45h279.5c28.948 0 52.5-23.552 52.5-52.5v-324.5h15v422h-347zm362 45v-422h15v422z" fill="#45a1c0" data-original="#000000" style="" class=""/><path d="m112.5 241.333h75c4.143 0 7.5-3.357 7.5-7.5s-3.357-7.5-7.5-7.5h-67.5v-67.5c0-4.143-3.357-7.5-7.5-7.5s-7.5 3.357-7.5 7.5v75c0 4.143 3.357 7.5 7.5 7.5z" fill="#45a1c0" data-original="#000000" style="" class=""/></g></g></svg>
