<?xml version="1.0"?>
<svg xmlns="http://www.w3.org/2000/svg" xmlns:xlink="http://www.w3.org/1999/xlink" xmlns:svgjs="http://svgjs.com/svgjs" version="1.1" width="512" height="512" x="0" y="0" viewBox="0 0 505 505" style="enable-background:new 0 0 512 512" xml:space="preserve" class=""><g>
<g xmlns="http://www.w3.org/2000/svg">
	<path d="M252.5,505c-67.445,0-130.854-26.265-178.544-73.956S0,319.945,0,252.5S26.265,121.646,73.956,73.956S185.055,0,252.5,0   c44.971,0,89.127,11.972,127.693,34.623c37.428,21.982,68.763,53.423,90.617,90.923c2.085,3.579,0.875,8.171-2.704,10.256   c-3.577,2.084-8.17,0.876-10.256-2.704c-20.56-35.281-50.04-64.861-85.253-85.542C336.332,26.258,294.803,15,252.5,15   c-63.438,0-123.08,24.704-167.938,69.562S15,189.062,15,252.5s24.704,123.08,69.562,167.938S189.062,490,252.5,490   s123.08-24.704,167.938-69.562S490,315.938,490,252.5c0-31.925-6.225-62.902-18.503-92.069c-1.607-3.817,0.185-8.215,4.003-9.822   c3.816-1.608,8.216,0.186,9.822,4.003C498.379,185.631,505,218.565,505,252.5c0,67.445-26.265,130.854-73.956,178.544   S319.945,505,252.5,505z" fill="#45a1c0" data-original="#000000" style="" class=""/>
	<path d="M252.5,450.378c-109.11,0-197.878-88.768-197.878-197.878S143.39,54.622,252.5,54.622   c109.111,0,197.879,88.768,197.879,197.878S361.611,450.378,252.5,450.378z M252.5,69.622   c-100.839,0-182.878,82.039-182.878,182.878S151.661,435.378,252.5,435.378c100.84,0,182.879-82.039,182.879-182.878   S353.34,69.622,252.5,69.622z" fill="#45a1c0" data-original="#000000" style="" class=""/>
	<path d="M187.62,404.502c-15.164,0-27.5-12.336-27.5-27.5v-12.938h-6.122c-15.164,0-27.5-12.336-27.5-27.5s12.336-27.5,27.5-27.5   h6.122v-8.003h-6.122c-15.164,0-27.5-12.336-27.5-27.5s12.336-27.5,27.5-27.5h6.122v-23.719c0-4.142,3.358-7.5,7.5-7.5   s7.5,3.358,7.5,7.5v31.219c0,4.142-3.358,7.5-7.5,7.5h-13.622c-6.893,0-12.5,5.607-12.5,12.5s5.607,12.5,12.5,12.5h13.622   c4.142,0,7.5,3.358,7.5,7.5v23.003c0,4.142-3.358,7.5-7.5,7.5h-13.622c-6.893,0-12.5,5.607-12.5,12.5s5.607,12.5,12.5,12.5h13.622   c4.142,0,7.5,3.358,7.5,7.5v20.438c0,6.893,5.607,12.5,12.5,12.5s12.5-5.607,12.5-12.5v-20.438c0-4.142,3.358-7.5,7.5-7.5h69.955   c6.893,0,12.5-5.607,12.5-12.5s-5.607-12.5-12.5-12.5H207.62c-4.142,0-7.5-3.358-7.5-7.5v-23.003c0-4.142,3.358-7.5,7.5-7.5h79.692   c45.695,0,82.871-37.176,82.871-82.871c0-45.695-37.176-82.871-82.871-82.871H187.62c-6.893,0-12.5,5.607-12.5,12.5v59.521   c0,4.142-3.358,7.5-7.5,7.5s-7.5-3.358-7.5-7.5v-59.521c0-15.164,12.336-27.5,27.5-27.5h99.692   c53.966,0,97.871,43.905,97.871,97.871c0,53.966-43.905,97.871-97.871,97.871H215.12v8.003h62.455c15.164,0,27.5,12.336,27.5,27.5   s-12.336,27.5-27.5,27.5H215.12v12.938C215.12,392.166,202.784,404.502,187.62,404.502z M287.312,261.061H207.62   c-4.142,0-7.5-3.358-7.5-7.5V152.819c0-4.142,3.358-7.5,7.5-7.5h79.692c31.91,0,57.871,25.961,57.871,57.871   S319.222,261.061,287.312,261.061z M215.12,246.061h72.192c23.639,0,42.871-19.231,42.871-42.871s-19.232-42.871-42.871-42.871   H215.12V246.061z" fill="#45a1c0" data-original="#000000" style="" class=""/>
</g>















</g></svg>
