<svg width="300" height="78" viewBox="0 0 300 78" fill="none" xmlns="http://www.w3.org/2000/svg">
<rect width="300" height="78" fill="white"/>
<path d="M130.581 12.0342L158.144 12.3645C158.93 12.374 159.642 12.6873 160.152 13.1837C160.662 13.6802 160.974 14.3642 160.964 15.1107L160.789 28.2153L160.353 60.7803C160.343 61.5267 160.013 62.203 159.49 62.6871C158.968 63.1712 158.247 63.4674 157.461 63.458L155.187 63.4307L155.171 64.6321C155.156 65.723 154.205 66.6039 153.056 66.5902C151.907 66.5764 150.979 65.673 150.994 64.582L151.01 63.3806L136.424 63.2059L136.408 64.4072C136.393 65.4982 135.442 66.3791 134.293 66.3653C133.144 66.3516 132.217 65.4481 132.231 64.3572L132.247 63.1558L129.898 63.1276C129.112 63.1182 128.4 62.8049 127.89 62.3084C127.381 61.812 127.069 61.128 127.079 60.3815L127.514 27.8165L127.689 14.7119C127.699 13.9655 128.029 13.2891 128.552 12.8051C129.075 12.321 129.795 12.0248 130.581 12.0342ZM132.205 31.8838C132.213 31.292 132.726 30.8166 133.349 30.8241C133.973 30.8316 134.473 31.3191 134.465 31.9109L134.345 40.9212C134.337 41.513 133.823 41.9884 133.2 41.9809C132.577 41.9734 132.076 41.4859 132.084 40.8941L132.205 31.8838ZM132.408 16.6459C132.416 16.054 132.93 15.5787 133.553 15.5862C134.176 15.5936 134.677 16.0811 134.669 16.673L134.579 23.3644C134.572 23.9563 134.058 24.4316 133.435 24.4242C132.812 24.4167 132.311 23.9292 132.319 23.3373L132.408 16.6459ZM129.794 26.766L158.543 27.1105L158.703 15.0836C158.705 14.929 158.642 14.7869 158.532 14.6839C158.426 14.5811 158.278 14.513 158.115 14.5111L130.553 14.1808C130.39 14.1788 130.24 14.2389 130.132 14.3436C130.024 14.4439 129.952 14.5844 129.95 14.739L129.789 26.7659L129.794 26.766ZM158.509 29.2614L129.765 28.917L129.344 60.4042C129.342 60.5588 129.405 60.701 129.515 60.8039C129.621 60.9067 129.769 60.9748 129.932 60.9767L157.49 61.307C157.653 61.3089 157.802 61.2489 157.911 61.1442C158.019 61.0439 158.091 60.9034 158.093 60.7488L158.514 29.2615L158.509 29.2614Z" fill="black"/>
<path d="M8.832 47V45.304L12.48 44.568L11.872 45.432V26.456L12.576 27H6.72L7.488 26.328L6.752 30.392H4.8V24.6H22.208V30.392H20.256L19.552 26.456L20.288 27H14.432L15.136 26.456V45.432L14.56 44.568L18.176 45.304V47H8.832ZM36.063 45.272L35.583 44.6L38.463 45.272V46.968L33.599 47.192L33.151 44.12L33.407 44.216C32.4897 45.2613 31.4977 46.04 30.431 46.552C29.3643 47.064 28.3297 47.32 27.327 47.32C26.0897 47.32 25.023 46.9147 24.127 46.104C23.2523 45.2933 22.815 44.0773 22.815 42.456C22.815 41.2187 23.0817 40.2587 23.615 39.576C24.1483 38.872 24.895 38.3707 25.855 38.072C26.815 37.7733 27.9457 37.624 29.247 37.624H33.151L32.863 37.976V35.224C32.863 34.1147 32.575 33.3253 31.999 32.856C31.423 32.3653 30.623 32.12 29.599 32.12C29.0657 32.12 28.5003 32.1733 27.903 32.28C27.327 32.3867 26.6977 32.5573 26.015 32.792L26.463 32.344L26.111 35.192H23.999L23.743 30.936C25.0443 30.5307 26.239 30.232 27.327 30.04C28.4363 29.8267 29.4603 29.72 30.399 29.72C32.191 29.72 33.5777 30.1147 34.559 30.904C35.5617 31.6933 36.063 32.9413 36.063 34.648V45.272ZM26.047 42.232C26.047 43.1493 26.271 43.832 26.719 44.28C27.167 44.7067 27.7323 44.92 28.415 44.92C29.0977 44.92 29.8443 44.7067 30.655 44.28C31.487 43.832 32.287 43.2453 33.055 42.52L32.863 43.32V39.352L33.151 39.672H29.759C28.351 39.672 27.3803 39.8853 26.847 40.312C26.3137 40.7387 26.047 41.3787 26.047 42.232ZM44.5033 32.76H45.0153V45.336L44.6633 44.664L47.2552 45.304V47H40.1193V45.304L42.9353 44.632L42.5193 45.336V31.704L43.0633 32.536L40.1193 31.8V30.136L46.0393 29.944L51.7353 42.04H50.3913L56.1513 30.136L62.0073 29.944V31.608L59.0953 32.472L59.6393 31.608V45.304L59.2233 44.632L62.0073 45.304V47H54.6473V45.304L57.2393 44.664L56.8233 45.176V32.6H57.3353L51.6393 44.248L50.1033 44.344L44.5033 32.76ZM72.7578 47.32C70.8804 47.32 69.3551 46.84 68.1818 45.88C67.0298 44.92 66.1871 43.576 65.6538 41.848C65.1204 40.12 64.8538 38.0933 64.8538 35.768C64.8538 33.4427 65.0991 31.448 65.5898 29.784C66.0804 28.12 66.8378 26.7547 67.8618 25.688C68.9071 24.6213 70.2404 23.832 71.8618 23.32C73.4831 22.7867 75.4138 22.5093 77.6538 22.488L77.0138 23.128L77.5258 20.568H79.5738L79.6378 25.208C77.8458 25.208 76.2884 25.272 74.9658 25.4C73.6644 25.528 72.5764 25.7733 71.7018 26.136C70.8271 26.4987 70.1338 27.0427 69.6218 27.768C69.1098 28.4933 68.7364 29.4533 68.5018 30.648C68.2884 31.8427 68.1818 33.336 68.1818 35.128C68.1818 36.1947 68.2138 37.208 68.2778 38.168C68.3418 39.128 68.4591 40.0133 68.6298 40.824C68.8218 41.6133 69.0991 42.3067 69.4618 42.904C69.8244 43.5013 70.2831 43.96 70.8378 44.28C71.4138 44.6 72.1071 44.76 72.9178 44.76C74.3684 44.76 75.4778 44.2587 76.2458 43.256C77.0138 42.2533 77.3978 40.8667 77.3978 39.096C77.3978 37.7733 77.1951 36.6747 76.7898 35.8C76.4058 34.9253 75.8831 34.2747 75.2218 33.848C74.5604 33.4213 73.8031 33.208 72.9498 33.208C72.1604 33.208 71.3178 33.4 70.4218 33.784C69.5471 34.1467 68.6831 34.6907 67.8298 35.416L67.7338 33.24C68.7578 32.408 69.8138 31.7893 70.9018 31.384C71.9898 30.9573 73.0244 30.744 74.0058 30.744C75.2644 30.744 76.3951 31.0427 77.3978 31.64C78.4004 32.2373 79.2004 33.1333 79.7978 34.328C80.4164 35.5227 80.7257 36.9947 80.7257 38.744C80.7257 40.5787 80.3844 42.136 79.7018 43.416C79.0191 44.696 78.0804 45.6667 76.8858 46.328C75.6911 46.9893 74.3151 47.32 72.7578 47.32ZM91.4088 29.72C93.7981 29.72 95.6754 30.4667 97.0408 31.96C98.4061 33.432 99.0888 35.5227 99.0888 38.232C99.0888 40.0667 98.7581 41.6667 98.0968 43.032C97.4354 44.3973 96.4861 45.4533 95.2488 46.2C94.0328 46.9467 92.5608 47.32 90.8328 47.32C88.4648 47.32 86.6194 46.5947 85.2968 45.144C83.9741 43.672 83.3128 41.5813 83.3128 38.872C83.3128 36.9733 83.6328 35.3413 84.2728 33.976C84.9128 32.6107 85.8301 31.5653 87.0248 30.84C88.2408 30.0933 89.7021 29.72 91.4088 29.72ZM91.2488 32.056C89.7341 32.056 88.5821 32.632 87.7928 33.784C87.0248 34.9147 86.6408 36.5573 86.6408 38.712C86.6408 40.824 87.0141 42.4027 87.7608 43.448C88.5074 44.472 89.5954 44.984 91.0248 44.984C92.0701 44.984 92.9341 44.728 93.6168 44.216C94.3208 43.704 94.8434 42.9573 95.1848 41.976C95.5474 40.9733 95.7288 39.7787 95.7288 38.392C95.7288 36.28 95.3448 34.7013 94.5768 33.656C93.8088 32.5893 92.6994 32.056 91.2488 32.056ZM107.094 30.04H110.07C111.436 30.04 112.598 30.1787 113.558 30.456C114.54 30.712 115.276 31.1387 115.766 31.736C116.278 32.3333 116.534 33.1333 116.534 34.136C116.534 35.0533 116.31 35.8 115.862 36.376C115.414 36.952 114.764 37.3893 113.91 37.688C113.057 37.9653 112.001 38.1573 110.742 38.264L110.902 37.944C111.841 37.944 112.694 38.0293 113.462 38.2C114.252 38.3493 114.924 38.6053 115.478 38.968C116.054 39.3093 116.492 39.7573 116.79 40.312C117.11 40.8667 117.27 41.5493 117.27 42.36C117.27 43.9387 116.652 45.112 115.414 45.88C114.198 46.6267 112.332 47 109.814 47H101.526V45.304L104.214 44.664L103.894 45.048V32.152L104.182 32.44L101.526 31.832V30.136L107.094 30.04ZM109.43 32.184H106.582L107.094 31.64V37.72L106.582 37.304H108.726C110.369 37.304 111.542 37.0907 112.246 36.664C112.972 36.216 113.334 35.5333 113.334 34.616C113.334 33.72 113.014 33.0907 112.374 32.728C111.734 32.3653 110.753 32.184 109.43 32.184ZM109.43 44.824C111.009 44.824 112.15 44.6107 112.854 44.184C113.558 43.7573 113.91 43.032 113.91 42.008C113.91 41.048 113.601 40.3227 112.982 39.832C112.364 39.32 111.393 39.064 110.07 39.064H106.582L107.094 38.584V45.304L106.582 44.824H109.43Z" fill="black"/>
<path d="M180.104 47.32C178.376 47.32 176.797 46.8827 175.368 46.008C173.96 45.1333 172.829 43.8533 171.976 42.168C171.144 40.4613 170.728 38.3707 170.728 35.896C170.728 33.464 171.144 31.384 171.976 29.656C172.829 27.928 174.013 26.6053 175.528 25.688C177.043 24.7493 178.813 24.28 180.84 24.28C181.907 24.28 183.016 24.4187 184.168 24.696C185.341 24.952 186.568 25.3573 187.848 25.912L187.592 31.16H185.64L185 27.288L185.576 27.864C184.765 27.5227 183.955 27.2667 183.144 27.096C182.333 26.9253 181.587 26.84 180.904 26.84C179.517 26.84 178.323 27.192 177.32 27.896C176.339 28.5787 175.581 29.5707 175.048 30.872C174.515 32.152 174.248 33.6987 174.248 35.512C174.248 37.496 174.536 39.1707 175.112 40.536C175.709 41.88 176.509 42.904 177.512 43.608C178.536 44.2907 179.677 44.632 180.936 44.632C181.875 44.632 182.856 44.4293 183.88 44.024C184.904 43.6187 185.907 43.0107 186.888 42.2L188.168 44.12C186.888 45.208 185.555 46.0187 184.168 46.552C182.781 47.064 181.427 47.32 180.104 47.32ZM197.488 47.32C196.016 47.32 194.715 47 193.584 46.36C192.475 45.6987 191.6 44.7387 190.96 43.48C190.342 42.2 190.032 40.6427 190.032 38.808C190.032 36.9307 190.352 35.32 190.992 33.976C191.654 32.6107 192.582 31.5653 193.776 30.84C194.992 30.0933 196.411 29.72 198.032 29.72C199.59 29.72 200.859 30.04 201.84 30.68C202.843 31.32 203.579 32.2053 204.048 33.336C204.539 34.4453 204.784 35.7147 204.784 37.144C204.784 37.4213 204.774 37.6987 204.752 37.976C204.731 38.2533 204.699 38.5733 204.656 38.936H192.528V36.728H201.776L201.488 36.92C201.51 36.0453 201.403 35.2453 201.168 34.52C200.934 33.7947 200.539 33.2187 199.984 32.792C199.43 32.344 198.694 32.12 197.776 32.12C196.774 32.12 195.942 32.3973 195.28 32.952C194.619 33.4853 194.128 34.2213 193.808 35.16C193.488 36.0987 193.328 37.176 193.328 38.392C193.328 39.6933 193.51 40.8347 193.872 41.816C194.235 42.776 194.779 43.5333 195.504 44.088C196.251 44.6213 197.168 44.888 198.256 44.888C199.024 44.888 199.856 44.7387 200.752 44.44C201.67 44.1413 202.608 43.6933 203.568 43.096L204.688 44.856C203.494 45.688 202.278 46.3067 201.04 46.712C199.824 47.1173 198.64 47.32 197.488 47.32ZM207.019 54.36V52.664L209.867 51.928L209.387 52.504V32.024L209.803 32.504L207.019 31.832V30.136L211.883 29.912L212.267 32.696L211.883 32.472C212.885 31.5547 213.867 30.872 214.827 30.424C215.808 29.9547 216.789 29.72 217.771 29.72C218.965 29.72 220.032 30.0507 220.971 30.712C221.931 31.3733 222.688 32.3333 223.243 33.592C223.797 34.8293 224.075 36.3653 224.075 38.2C224.075 40.184 223.733 41.8587 223.051 43.224C222.368 44.5893 221.408 45.624 220.171 46.328C218.933 47.0107 217.483 47.352 215.819 47.352C215.264 47.352 214.677 47.2987 214.059 47.192C213.44 47.1067 212.8 46.9787 212.139 46.808L212.587 46.424V52.504L212.203 51.992L215.371 52.664V54.36H207.019ZM215.435 45.016C217.205 45.016 218.528 44.44 219.403 43.288C220.299 42.136 220.747 40.5467 220.747 38.52C220.747 37.176 220.565 36.0347 220.203 35.096C219.84 34.136 219.349 33.4 218.731 32.888C218.112 32.376 217.397 32.12 216.587 32.12C215.904 32.12 215.189 32.3013 214.443 32.664C213.696 33.0267 212.949 33.5813 212.203 34.328L212.587 33.4V45.112L212.171 44.44C213.365 44.824 214.453 45.016 215.435 45.016ZM232.094 30.04H235.07C236.436 30.04 237.598 30.1787 238.558 30.456C239.54 30.712 240.276 31.1387 240.766 31.736C241.278 32.3333 241.534 33.1333 241.534 34.136C241.534 35.0533 241.31 35.8 240.862 36.376C240.414 36.952 239.764 37.3893 238.91 37.688C238.057 37.9653 237.001 38.1573 235.742 38.264L235.902 37.944C236.841 37.944 237.694 38.0293 238.462 38.2C239.252 38.3493 239.924 38.6053 240.478 38.968C241.054 39.3093 241.492 39.7573 241.79 40.312C242.11 40.8667 242.27 41.5493 242.27 42.36C242.27 43.9387 241.652 45.112 240.414 45.88C239.198 46.6267 237.332 47 234.814 47H226.526V45.304L229.214 44.664L228.894 45.048V32.152L229.182 32.44L226.526 31.832V30.136L232.094 30.04ZM234.43 32.184H231.582L232.094 31.64V37.72L231.582 37.304H233.726C235.369 37.304 236.542 37.0907 237.246 36.664C237.972 36.216 238.334 35.5333 238.334 34.616C238.334 33.72 238.014 33.0907 237.374 32.728C236.734 32.3653 235.753 32.184 234.43 32.184ZM234.43 44.824C236.009 44.824 237.15 44.6107 237.854 44.184C238.558 43.7573 238.91 43.032 238.91 42.008C238.91 41.048 238.601 40.3227 237.982 39.832C237.364 39.32 236.393 39.064 235.07 39.064H231.582L232.094 38.584V45.304L231.582 44.824H234.43ZM244.463 47V45.304L247.503 44.536L246.863 45.24V31.864L247.695 32.6L244.463 31.8V30.136L252.207 29.944V31.608L249.199 32.472L249.903 31.8V41.784L249.423 41.688L258.447 32.664L258.159 33.272L258.127 31.864L258.671 32.44L255.855 31.8V30.136L263.567 29.944V31.608L260.527 32.472L261.199 31.8V45.24L260.559 44.536L263.567 45.304V47H255.855V45.304L258.703 44.632L258.127 45.24V34.776L258.575 35.128L249.583 44.376L249.903 43.768V45.24L249.647 44.76L252.207 45.304V47H244.463ZM273.36 47.32C271.974 47.32 270.715 46.9787 269.584 46.296C268.454 45.6133 267.558 44.632 266.896 43.352C266.256 42.072 265.936 40.5253 265.936 38.712C265.936 37.112 266.16 35.7467 266.608 34.616C267.078 33.4853 267.696 32.5573 268.464 31.832C269.254 31.1067 270.139 30.5733 271.12 30.232C272.102 29.8907 273.126 29.72 274.192 29.72C275.11 29.72 276.059 29.848 277.04 30.104C278.043 30.3387 278.896 30.6373 279.6 31L279.472 35.256H277.36L276.912 32.376L277.2 32.632C276.752 32.4187 276.251 32.2693 275.696 32.184C275.142 32.0987 274.64 32.056 274.192 32.056C273.147 32.056 272.251 32.3227 271.504 32.856C270.779 33.368 270.224 34.1147 269.84 35.096C269.456 36.056 269.264 37.1973 269.264 38.52C269.264 39.8853 269.467 41.048 269.872 42.008C270.299 42.968 270.875 43.6933 271.6 44.184C272.326 44.6533 273.158 44.888 274.096 44.888C274.822 44.888 275.6 44.7387 276.432 44.44C277.264 44.1413 278.128 43.6827 279.024 43.064L280.144 44.76C278.992 45.6347 277.851 46.2853 276.72 46.712C275.59 47.1173 274.47 47.32 273.36 47.32Z" fill="black"/>
</svg>
